<?xml version="1.0" encoding="utf-8"?>
<!-- Generator: Adobe Illustrator 19.0.0, SVG Export Plug-In . SVG Version: 6.00 Build 0)  -->
<svg version="1.1" id="Layer_1" xmlns="http://www.w3.org/2000/svg" xmlns:xlink="http://www.w3.org/1999/xlink" x="0px" y="0px"
	 viewBox="-80 134.4 147.1 42.6" style="enable-background:new -80 134.4 147.1 42.6;" xml:space="preserve">
<style type="text/css">
	.st0{fill-rule:evenodd;clip-rule:evenodd;fill:#12100C;stroke:#1D1D1B;stroke-width:0.216;stroke-miterlimit:2.6131;}
	.st1{fill-rule:evenodd;clip-rule:evenodd;fill:#12100C;}
	.st2{fill-rule:evenodd;clip-rule:evenodd;fill:#225DA5;stroke:#1D1D1B;stroke-width:0.216;stroke-miterlimit:2.6131;}
</style>
<title>Trenta</title>
<g id="XMLID_1_">
	<path id="XMLID_2_" class="st0" d="M45.7,144.8c6,0,10.9,4.9,10.9,10.9c0,6-4.9,10.9-10.9,10.9c-6,0-10.9-4.9-10.9-10.9
		C34.8,149.7,39.7,144.8,45.7,144.8L45.7,144.8z M13.5,140.4v3.8h30.9c-5.8,0.7-10.3,5.6-10.3,11.5c0,6,4.5,10.9,10.3,11.5h-66.6
		v3.6h68c8.3,0,15-6.8,15-15.2v0c0-8.3-6.8-15.2-15-15.2H13.6L13.5,140.4z"/>
	<path id="XMLID_5_" class="st1" d="M-58.8,140.5h14.4l1.9-6.1h-16.4c-11.6,0-21.1,9.6-21.1,21.3l0,0c0,11.7,9.5,21.3,21.1,21.3
		H45.9c11.6,0,21.1-9.6,21.1-21.3l0,0c0-11.7-9.5-21.3-21.1-21.3H11.7l1.9,6.1h32.3c8.3,0,15,6.8,15,15.2v0c0,8.3-6.8,15.2-15,15.2
		H-58.8c-8.3,0-15-6.8-15-15.2v0C-73.8,147.4-67,140.5-58.8,140.5z"/>
	<polygon id="XMLID_6_" class="st2" points="-59.8,135.4 -60.8,135.4 -61.8,135.6 -62.8,135.8 -63.8,136 -64.8,136.3 -65.7,136.6 
		-66.6,136.9 -67.5,137.4 -68.4,137.8 -69.2,138.3 -70.1,138.8 -70.8,139.4 -71.6,140 -72.3,140.6 -73,141.3 -73.7,142 -74.4,142.8 
		-75,143.5 -75.5,144.3 -76,145.2 -76.5,146 -77,146.9 -77.4,147.8 -77.8,148.7 -78.1,149.7 -78.3,150.6 -78.6,151.6 -78.7,152.6 
		-78.9,153.6 -79,154.7 -79,155.7 -79,156.7 -78.9,157.8 -78.7,158.8 -78.6,159.8 -78.3,160.8 -78.1,161.7 -77.8,162.7 -77.4,163.6 
		-77,164.5 -76.5,165.4 -76,166.2 -75.5,167.1 -75,167.9 -74.4,168.6 -73.7,169.4 -73,170.1 -72.3,170.8 -71.6,171.4 -70.8,172 
		-70.1,172.6 -69.2,173.1 -68.4,173.6 -67.5,174 -66.6,174.5 -65.7,174.8 -64.8,175.1 -63.8,175.4 -62.8,175.6 -61.8,175.8 
		-60.8,176 -59.8,176 -58.8,176.1 45.9,176.1 46.9,176 47.9,176 48.9,175.8 49.9,175.6 50.9,175.4 51.9,175.1 52.8,174.8 
		53.7,174.5 54.6,174 55.5,173.6 56.3,173.1 57.2,172.6 57.9,172 58.7,171.4 59.4,170.8 60.1,170.1 60.8,169.4 61.5,168.6 
		62.1,167.9 62.6,167.1 63.1,166.2 63.6,165.4 64.1,164.5 64.5,163.6 64.9,162.7 65.2,161.7 65.4,160.8 65.7,159.8 65.8,158.8 
		66,157.8 66.1,156.7 66.1,155.7 66.1,154.7 66,153.6 65.8,152.6 65.7,151.6 65.4,150.6 65.2,149.7 64.9,148.7 64.5,147.8 
		64.1,146.9 63.6,146 63.1,145.2 62.6,144.3 62.1,143.5 61.5,142.8 60.8,142 60.1,141.3 59.4,140.6 58.7,140 57.9,139.4 57.2,138.8 
		56.3,138.3 55.5,137.8 54.6,137.4 53.7,136.9 52.8,136.6 51.9,136.3 50.9,136 49.9,135.8 48.9,135.6 47.9,135.4 46.9,135.4 
		45.9,135.3 13,135.3 14.3,139.6 45.9,139.6 46.7,139.6 47.5,139.7 48.3,139.8 49.1,139.9 49.9,140.1 50.6,140.3 51.4,140.6 
		52.1,140.9 52.8,141.2 53.5,141.5 54.1,141.9 54.8,142.4 55.4,142.8 56,143.3 56.6,143.8 57.2,144.3 57.7,144.9 58.2,145.5 
		58.7,146.1 59.1,146.7 59.5,147.4 59.9,148 60.3,148.7 60.6,149.4 60.9,150.2 61.1,150.9 61.3,151.7 61.5,152.5 61.7,153.3 
		61.8,154.1 61.8,154.9 61.8,155.7 61.8,155.7 61.8,156.5 61.8,157.3 61.7,158.1 61.5,158.9 61.3,159.7 61.1,160.5 60.9,161.2 
		60.6,162 60.3,162.7 59.9,163.4 59.5,164 59.1,164.7 58.7,165.3 58.2,165.9 57.7,166.5 57.2,167.1 56.6,167.6 56,168.1 55.4,168.6 
		54.8,169 54.1,169.5 53.5,169.9 52.8,170.2 52.1,170.5 51.4,170.8 50.6,171.1 49.9,171.3 49.1,171.5 48.3,171.6 47.5,171.7 
		46.7,171.8 45.9,171.8 -58.8,171.8 -59.6,171.8 -60.4,171.7 -61.2,171.6 -62,171.5 -62.8,171.3 -63.5,171.1 -64.3,170.8 -65,170.5 
		-65.7,170.2 -66.4,169.9 -67,169.5 -67.7,169 -68.3,168.6 -68.9,168.1 -69.5,167.6 -70.1,167.1 -70.6,166.5 -71.1,165.9 
		-71.6,165.3 -72,164.7 -72.4,164 -72.8,163.4 -73.2,162.7 -73.5,162 -73.8,161.2 -74,160.5 -74.2,159.7 -74.4,158.9 -74.6,158.1 
		-74.7,157.3 -74.7,156.5 -74.7,155.7 -74.7,155.7 -74.7,154.9 -74.7,154.1 -74.6,153.3 -74.4,152.5 -74.2,151.7 -74,150.9 
		-73.8,150.2 -73.5,149.4 -73.2,148.7 -72.8,148 -72.4,147.4 -72,146.7 -71.6,146.1 -71.1,145.5 -70.6,144.9 -70.1,144.3 
		-69.5,143.8 -68.9,143.3 -68.3,142.8 -67.7,142.4 -67,141.9 -66.4,141.5 -65.7,141.2 -65,140.9 -64.3,140.6 -63.5,140.3 
		-62.8,140.1 -62,139.9 -61.2,139.8 -60.4,139.7 -59.6,139.6 -58.8,139.6 -45,139.6 -43.7,135.3 -58.8,135.3 	"/>
	<path id="XMLID_7_" class="st1" d="M-40.7,134.4H10l1.7,6.1h-0.6L8.4,136H-28l-0.1,25.2c0,0.7,0.1,1.2,0.4,1.4
		c0.2,0.2,0.7,0.4,1.4,0.4v0.5h-6.5v-0.5c0.7,0,1.2-0.1,1.4-0.4c0.2-0.2,0.4-0.7,0.4-1.4L-31,136h-8.1l-2.7,4.6h-0.6L-40.7,134.4
		L-40.7,134.4z M7.7,163.7h0.6c0.1-0.3,0.2-0.5,0.4-0.6s0.4-0.2,0.6-0.2c0.1,0,0.5,0.1,1.3,0.4c0.8,0.3,1.6,0.4,2.4,0.4
		c1.4,0,2.6-0.4,3.4-1.2c0.9-0.8,1.3-1.8,1.3-3.1c0-0.9-0.3-1.7-0.8-2.4c-0.5-0.7-1.4-1.4-2.6-2.2c-0.3-0.2-0.8-0.5-1.4-0.8
		c-1.2-0.7-2-1.3-2.3-1.7c-0.1-0.2-0.2-0.4-0.3-0.6c-0.1-0.2-0.1-0.4-0.1-0.6c0-0.6,0.2-1,0.6-1.4c0.4-0.3,0.9-0.5,1.6-0.5
		c0.9,0,1.7,0.3,2.4,1c0.7,0.6,1.3,1.5,1.7,2.7h0.6v-4.7h-0.6c-0.1,0.3-0.2,0.5-0.4,0.6c-0.2,0.1-0.3,0.2-0.6,0.2
		c0,0-0.4-0.1-1.2-0.4c-0.8-0.2-1.5-0.4-2.3-0.4c-1.3,0-2.4,0.3-3.2,1c-0.8,0.7-1.2,1.5-1.2,2.6c0,0.8,0.2,1.6,0.7,2.2
		c0.5,0.6,1.5,1.4,3,2.3c0.1,0.1,0.3,0.2,0.5,0.3c2.2,1.3,3.3,2.5,3.3,3.7c0,0.7-0.2,1.2-0.7,1.7c-0.5,0.4-1.1,0.7-1.8,0.7
		c-1,0-1.9-0.3-2.7-1c-0.8-0.7-1.4-1.6-1.9-2.9l-0.6-0.1V163.7L7.7,163.7z M-7.4,163.4h4.6v-0.6h-0.2c-0.4,0-0.7-0.1-1-0.3
		c-0.2-0.2-0.3-0.5-0.3-0.9c0-0.1,0-0.3,0-0.4c0-0.1,0.1-0.2,0.1-0.4l0.6-1.7h5.3l0.8,2.1c0,0.1,0.1,0.3,0.1,0.4c0,0.1,0,0.2,0,0.3
		c0,0.3-0.1,0.6-0.4,0.7c-0.3,0.2-0.7,0.3-1.2,0.3l0,0.5h6.2v-0.6c-0.2,0-0.4,0-0.6-0.1c-0.2-0.1-0.3-0.1-0.5-0.2
		c-0.2-0.1-0.3-0.3-0.5-0.6c-0.2-0.3-0.3-0.6-0.5-1.1l-4.9-12.2h-0.7c-0.1,0.4-0.3,0.8-0.4,1.1c-0.1,0.4-0.3,0.7-0.4,1l-3.6,8.9
		c-0.5,1.3-1,2.1-1.3,2.5c-0.4,0.4-0.8,0.6-1.3,0.7V163.4L-7.4,163.4z M-3.1,158.1h4.4l-2.2-5.4L-3.1,158.1L-3.1,158.1z
		 M-17.4,156.1h1.1c1.2,0,2-0.3,2.7-0.9c0.6-0.6,0.9-1.4,0.9-2.5c0-0.9-0.3-1.7-0.9-2.2c-0.6-0.5-1.4-0.8-2.4-0.8
		c-0.6,0-0.9,0.1-1.1,0.2c-0.2,0.1-0.3,0.4-0.3,0.9V156.1L-17.4,156.1z M-22.2,163.4h6.6v-0.5c-0.7,0-1.2-0.1-1.5-0.4
		c-0.2-0.2-0.4-0.7-0.4-1.4V157h0.7c0.1,0,0.2,0,0.3,0.1c0.1,0,0.2,0.1,0.3,0.2l4.7,6.1h3.9v-0.5c-0.3,0-0.6-0.1-0.8-0.2
		c-0.3-0.2-0.5-0.4-0.8-0.7l-4.2-5.3c1.3-0.3,2.2-0.8,2.8-1.5c0.6-0.6,0.9-1.5,0.9-2.4c0-1.3-0.5-2.3-1.5-2.9c-1-0.6-2.5-1-4.6-1
		h-6.3v0.5c0.7,0,1.2,0.1,1.5,0.4c0.2,0.2,0.4,0.7,0.4,1.4v10c0,0.7-0.1,1.2-0.4,1.4c-0.2,0.2-0.7,0.4-1.5,0.4V163.4L-22.2,163.4z
		 M-47.3,148.8v0.5c0.7,0,1.2,0.1,1.4,0.4c0.2,0.2,0.4,0.7,0.4,1.4v10c0,0.7-0.1,1.2-0.4,1.4c-0.2,0.2-0.7,0.4-1.4,0.4v0.5h5.7h1.2
		h4.7l0-4.4h-0.5c-0.4,2.2-0.7,3.4-3.4,3.4h-0.8v0c-0.1,0-0.2,0-0.3,0c-0.8,0-1.4-0.1-1.6-0.3c-0.2-0.2-0.3-0.5-0.3-1.1v-10
		c0-0.7,0.1-1.2,0.4-1.4c0.2-0.2,0.7-0.4,1.4-0.4v-0.5H-47.3L-47.3,148.8z M-61.4,148.8H-50l0,4.4h-0.4c-0.4-1.9-1-3.4-2.6-3.4h-2.6
		c-0.4,0-0.7,0-0.8,0.1c-0.1,0.1-0.2,0.3-0.2,0.6v4.7h0.7c2.1,0,2.1-1.2,2.4-3h0.5v7.5h-0.5c-0.3-2.2-0.5-3.4-3-3.4h-0.2v4.9
		c0,0.5,0.1,0.9,0.3,1c0.2,0.2,0.6,0.3,1.2,0.3h2.2c2.7,0,3-1.2,3.4-3.4h0.5l0,4.4h-12.4v-0.5c0.7,0,1.2-0.1,1.5-0.4
		c0.2-0.2,0.4-0.7,0.4-1.4v-10c0-0.7-0.1-1.2-0.4-1.4c-0.2-0.2-0.7-0.4-1.5-0.4V148.8z"/>
</g>
</svg>
